# xmcd
#
# Track frame offsets: 
#        150
#        19195
#        43987
#        61077
#        76480
#        101138
#        119214
#        137847
#
# Disc length: 2077 seconds
#
# Revision: 3
# Processed by: cddbd v1.5.2PL0 Copyright (c) Steve Scherf et al.
# Submitted via: ExactAudioCopy v0.99pb5
#
DISCID=73081b08
DTITLE=Oliver Nelson and His Orchestra - Fantabulous [Verve Originals]
DYEAR=1964
DGENRE=Hard Bop
TTITLE0=Hobo flats
TTITLE1=Post no bills
TTITLE2=À bientôt
TTITLE3=Three plus one
TTITLE4=Take me with you
TTITLE5=Daylie's double
TTITLE6=Teenie's blues
TTITLE7=Laz-ie Kate
EXTD=Art Hoyle, Eugene "Snooky" Young (b.1919): trumpet\nRoy Wiegano: 
EXTD=trombone\nTony Studd: bass trombone\nPhil Woods (b.1931): alto sa
EXTD=x, clarinet\nKenny Soderblom: alto sax, flute\nOliver Nelson (193
EXTD=2/1975): tenor sax, arrangements\nRobert Ashton: tenor sax, clari
EXTD=net\nJerome Richardson (1920/2000): baritone sax, flute, alto flu
EXTD=te\nPatti Bown (1931/2008): piano\nBen Tucker (b.1930): bass\nGra
EXTD=dy Tate (b.1932): drums\nPrincipally recorded at Universal Record
EXTD=ing Studio, Chicago US-IL, 1964-03-19, with additional recording 
EXTD=at RCA, Chicago US-IL.\nSupervised by Esmond Edwards.\nOriginally
EXTD=issued as Argo PS-737 (1964).\nReissue supervised by Andy McKaie
EXTD=\nMastered by Pete Doell at Universal Mastering Studios-West, No
EXTD=rth Hollywood US-CA.\nProduction coordination: Cameron Mizell\nCD
EXTD=: UMG/Verve B0010795-02 (2008-03-18), UPC 602517621350.
EXTT0=(Oliver Nelson)
EXTT1=(Oliver Nelson)
EXTT2=(Billy Taylor)
EXTT3=(Oliver Nelson)
EXTT4=(Willie Jean Tate/Oliver Nelson)
EXTT5=(Audrey Nelson)
EXTT6=(Oliver Nelson)
EXTT7=(Oliver Nelson)
PLAYORDER=
